<svg xmlns="http://www.w3.org/2000/svg" width="840" height="540" viewBox="0 0 840 540" role="img" aria-label="Synthetic race photo: runner with glare and shadow across bib 5602">
  <defs><linearGradient id="shade" x1="0" x2="1"><stop offset="0" stop-color="#000" stop-opacity=".42"/><stop offset="1" stop-color="#000" stop-opacity="0"/></linearGradient><radialGradient id="glare" cx="50%" cy="50%" r="50%"><stop offset="0" stop-color="#fff" stop-opacity=".85"/><stop offset="1" stop-color="#fff" stop-opacity="0"/></radialGradient></defs><rect width="840" height="540" fill="#ffe9b8"/><rect y="405" width="840" height="135" fill="#777"/><circle cx="420" cy="112" r="38" fill="#c68642"/><rect x="365" y="154" width="110" height="160" rx="28" fill="#2454c6"/><rect x="365" y="226" width="110" height="56" fill="#fff" stroke="#111" stroke-width="3"/><text x="420" y="267" text-anchor="middle" font-family="Arial" font-size="39" font-weight="700">5602</text><rect x="365" y="226" width="63" height="56" fill="url(#shade)"/><ellipse cx="458" cy="238" rx="44" ry="28" fill="url(#glare)"/><rect x="342" y="174" width="32" height="140" rx="16" fill="#c68642" transform="rotate(21 358 244)"/><rect x="468" y="174" width="32" height="140" rx="16" fill="#c68642" transform="rotate(-21 484 244)"/><rect x="383" y="312" width="30" height="140" rx="15" fill="#222"/><rect x="428" y="312" width="30" height="140" rx="15" fill="#222"/>
</svg>
