<svg xmlns="http://www.w3.org/2000/svg" width="860" height="540" viewBox="0 0 860 540" role="img" aria-label="Synthetic race photo: motion-blurred runner with bib 9027">
  <defs><filter id="blur"><feGaussianBlur stdDeviation="2.8 0"/></filter></defs><rect width="860" height="540" fill="#e7f1ff"/><rect y="405" width="860" height="135" fill="#6c6c6c"/><g opacity=".22" stroke="#222" stroke-width="10"><line x1="120" y1="190" x2="330" y2="190"/><line x1="80" y1="250" x2="290" y2="250"/><line x1="110" y1="330" x2="340" y2="330"/></g><g transform="translate(390 82)" filter="url(#blur)"><circle cx="70" cy="45" r="34" fill="#7b4a2b"/><rect x="25" y="88" width="96" height="155" rx="25" fill="#d83f87"/><rect x="28" y="156" width="90" height="50" fill="#fff" stroke="#111" stroke-width="3"/><text x="73" y="193" text-anchor="middle" font-family="Arial" font-size="32" font-weight="700">9027</text><rect x="8" y="105" width="28" height="130" rx="14" fill="#7b4a2b" transform="rotate(28 22 170)"/><rect x="110" y="100" width="28" height="130" rx="14" fill="#7b4a2b" transform="rotate(-32 124 165)"/><rect x="38" y="240" width="27" height="145" rx="13" fill="#222"/><rect x="86" y="240" width="27" height="145" rx="13" fill="#222"/></g>
</svg>
