<svg xmlns="http://www.w3.org/2000/svg" width="900" height="560" viewBox="0 0 900 560" role="img" aria-label="Synthetic race photo: three runners with bibs 305, 4179, and 88">
  <rect width="900" height="560" fill="#cfe8ff"/><rect y="410" width="900" height="150" fill="#777"/><line x1="0" y1="470" x2="900" y2="470" stroke="#eee" stroke-width="8" stroke-dasharray="60 40"/>
  <g transform="translate(145 75)"><circle cx="90" cy="45" r="32" fill="#9c6b43"/><rect x="50" y="88" width="90" height="145" rx="24" fill="#2775d1"/><rect x="50" y="152" width="88" height="48" fill="#fff" stroke="#111" stroke-width="3"/><text x="94" y="187" text-anchor="middle" font-family="Arial" font-size="34" font-weight="700">305</text><rect x="28" y="95" width="28" height="120" rx="14" fill="#9c6b43" transform="rotate(18 42 155)"/><rect x="137" y="95" width="28" height="120" rx="14" fill="#9c6b43" transform="rotate(-18 151 155)"/><rect x="62" y="230" width="26" height="135" rx="13" fill="#111"/><rect x="104" y="230" width="26" height="135" rx="13" fill="#111"/></g>
  <g transform="translate(390 50)"><circle cx="90" cy="45" r="34" fill="#6f4125"/><rect x="45" y="88" width="98" height="160" rx="26" fill="#41a85f"/><rect x="48" y="158" width="92" height="50" fill="#fff" stroke="#111" stroke-width="3"/><text x="94" y="195" text-anchor="middle" font-family="Arial" font-size="33" font-weight="700">4179</text><rect x="23" y="101" width="28" height="126" rx="14" fill="#6f4125" transform="rotate(20 37 164)"/><rect x="138" y="101" width="28" height="126" rx="14" fill="#6f4125" transform="rotate(-16 152 164)"/><rect x="58" y="245" width="27" height="145" rx="13" fill="#2d2d2d"/><rect x="108" y="245" width="27" height="145" rx="13" fill="#2d2d2d"/></g>
  <g transform="translate(655 95)"><circle cx="70" cy="38" r="28" fill="#c68642"/><rect x="35" y="75" width="78" height="128" rx="22" fill="#f2a33a"/><rect x="38" y="130" width="72" height="42" fill="#fff" stroke="#111" stroke-width="3"/><text x="74" y="161" text-anchor="middle" font-family="Arial" font-size="30" font-weight="700">88</text><rect x="48" y="201" width="24" height="126" rx="12" fill="#283044"/><rect x="84" y="201" width="24" height="126" rx="12" fill="#283044"/></g>
</svg>
